<?xml version="1.0" encoding="UTF-8"?>
<svg width="260" height="180" viewBox="0 0 260 180" fill="none" xmlns="http://www.w3.org/2000/svg">
  <!-- Arka plan -->
  <defs>
    <linearGradient id="panel" x1="0" y1="0" x2="0" y2="1">
      <stop offset="0%" stop-color="#111827"/>
      <stop offset="100%" stop-color="#020617"/>
    </linearGradient>
    <radialGradient id="glow" cx="0" cy="0" r="1" gradientUnits="userSpaceOnUse"
      gradientTransform="translate(30 20) rotate(45) scale(120)">
      <stop stop-color="#22C55E" stop-opacity="0.6"/>
      <stop offset="1" stop-color="#22C55E" stop-opacity="0"/>
    </radialGradient>
    <linearGradient id="bar" x1="0" y1="0" x2="1" y2="0">
      <stop offset="0%" stop-color="#22C55E"/>
      <stop offset="100%" stop-color="#4ADE80"/>
    </linearGradient>
  </defs>

  <rect x="0" y="0" width="260" height="180" fill="transparent"/>
  <circle cx="40" cy="10" r="120" fill="url(#glow)" opacity="0.35"/>

  <!-- Sayaç gövdesi -->
  <rect x="20" y="20" width="220" height="140" rx="20" ry="20" fill="url(#panel)" stroke="#1F2937" stroke-width="2"/>
  <rect x="30" y="30" width="200" height="120" rx="14" ry="14" fill="#020617" stroke="#1F2937" stroke-width="1.5"/>

  <!-- Üst ba_l1k -->
  <rect x="36" y="36" width="188" height="22" rx="8" ry="8" fill="#020617" stroke="#1F2937" stroke-width="1"/>
  <text x="44" y="51" fill="#9CA3AF" font-family="system-ui, -apple-system, sans-serif" font-size="10" letter-spacing="0.08em">
    ELEKTR0K SAYACI
  </text>
  <rect x="178" y="40" width="40" height="14" rx="7" ry="7" fill="#22C55E" opacity="0.14" stroke="#22C55E" stroke-width="0.6"/>
  <circle cx="188" cy="47" r="2.3" fill="#22C55E"/>
  <text x="195" y="50" fill="#A7F3D0" font-family="system-ui, -apple-system, sans-serif" font-size="8">
    ON
  </text>

  <!-- Dijital ekran -->
  <rect x="42" y="66" width="176" height="54" rx="8" ry="8" fill="#020617" stroke="#1F2937" stroke-width="1"/>
  <rect x="50" y="74" width="160" height="18" rx="4" ry="4" fill="#020617" stroke="#111827" stroke-width="1"/>

  <!-- Enerji deeri -->
  <text x="56" y="87" fill="#9CA3AF" font-family="system-ui, -apple-system, sans-serif" font-size="9">
    TOPLAM ENERJ0
  </text>
  <text x="56" y="102" fill="#E5E7EB" font-family="JetBrains Mono, ui-monospace" font-size="13">
    0012345.67 kWh
  </text>

  <!-- Küçük bar grafii -->
  <rect x="46" y="126" width="168" height="20" rx="6" ry="6" fill="#020617" stroke="#111827" stroke-width="1"/>
  <rect x="50" y="130" width="40" height="12" rx="3" ry="3" fill="url(#bar)"/>
  <rect x="94" y="130" width="32" height="12" rx="3" ry="3" fill="url(#bar)" opacity="0.85"/>
  <rect x="132" y="130" width="22" height="12" rx="3" ry="3" fill="url(#bar)" opacity="0.7"/>
  <rect x="158" y="130" width="30" height="12" rx="3" ry="3" fill="url(#bar)" opacity="0.9"/>
  <rect x="192" y="130" width="18" height="12" rx="3" ry="3" fill="url(#bar)" opacity="0.6"/>

  <!-- Alt bilgi sat1r1 -->
  <text x="50" y="118" fill="#9CA3AF" font-family="system-ui, -apple-system, sans-serif" font-size="8.5">
    1.7.0: 0001.42 kW    32.7.0: 230.4 V
  </text>

  <!-- OBIS etiketi -->
  <text x="44" y="146" fill="#6B7280" font-family="system-ui, -apple-system, sans-serif" font-size="7.5">
    OBIS 1.8.0  ·  IEC 62056-21  ·  TCP
  </text>
</svg>

